<svg width="30" height="31" viewBox="0 0 30 31" fill="none" xmlns="http://www.w3.org/2000/svg">
<path d="M15 3.69278C18.9759 3.69278 19.5181 3.69278 21.1446 3.69278C22.5904 3.69278 23.3133 4.05422 23.8554 4.23495C24.5783 4.59639 25.1205 4.77712 25.6627 5.31928C26.2048 5.86145 26.5663 6.40362 26.747 7.12651C26.9277 7.66868 27.1084 8.39157 27.2892 9.83736C27.2892 11.4639 27.2892 11.8253 27.2892 15.9819C27.2892 20.1386 27.2892 20.5 27.2892 22.1265C27.2892 23.5723 26.9277 24.2952 26.747 24.8374C26.3855 25.5602 26.2048 26.1024 25.6627 26.6446C25.1205 27.1868 24.5783 27.5482 23.8554 27.7289C23.3133 27.9096 22.5904 28.0904 21.1446 28.2711C19.5181 28.2711 19.1566 28.2711 15 28.2711C10.8434 28.2711 10.4819 28.2711 8.85542 28.2711C7.40964 28.2711 6.68675 27.9096 6.14458 27.7289C5.42169 27.3675 4.87952 27.1868 4.33735 26.6446C3.79518 26.1024 3.43374 25.5602 3.25301 24.8374C3.07229 24.2952 2.89157 23.5723 2.71084 22.1265C2.71084 20.5 2.71084 20.1386 2.71084 15.9819C2.71084 11.8253 2.71084 11.4639 2.71084 9.83736C2.71084 8.39157 3.07229 7.66868 3.25301 7.12651C3.61446 6.40362 3.79518 5.86145 4.33735 5.31928C4.87952 4.77712 5.42169 4.41567 6.14458 4.23495C6.68675 4.05422 7.40964 3.8735 8.85542 3.69278C10.4819 3.69278 11.0241 3.69278 15 3.69278ZM15 0.981934C10.8434 0.981934 10.4819 0.981934 8.85542 0.981934C7.22892 0.981934 6.14458 1.34338 5.24097 1.70483C4.33735 2.06627 3.43374 2.60844 2.53012 3.51206C1.62651 4.41567 1.26506 5.13856 0.722893 6.2229C0.361447 7.12651 0.180723 8.21085 0 9.83736C0 11.4639 0 12.006 0 15.9819C0 20.1386 0 20.5 0 22.1265C0 23.753 0.361447 24.8374 0.722893 25.741C1.08434 26.6446 1.62651 27.5482 2.53012 28.4518C3.43374 29.3554 4.15663 29.7169 5.24097 30.259C6.14458 30.6205 7.22892 30.8012 8.85542 30.9819C10.4819 30.9819 11.0241 30.9819 15 30.9819C18.9759 30.9819 19.5181 30.9819 21.1446 30.9819C22.7711 30.9819 23.8554 30.6205 24.759 30.259C25.6627 29.8976 26.5663 29.3554 27.4699 28.4518C28.3735 27.5482 28.7349 26.8253 29.2771 25.741C29.6386 24.8374 29.8193 23.753 30 22.1265C30 20.5 30 19.9578 30 15.9819C30 12.006 30 11.4639 30 9.83736C30 8.21085 29.6386 7.12651 29.2771 6.2229C28.9157 5.31928 28.3735 4.41567 27.4699 3.51206C26.5663 2.60844 25.8434 2.24699 24.759 1.70483C23.8554 1.34338 22.7711 1.16266 21.1446 0.981934C19.5181 0.981934 19.1566 0.981934 15 0.981934Z" fill="black"/>
<path fill-rule="evenodd" clip-rule="evenodd" d="M15 3.69278H21.1446C22.5904 3.69278 23.3133 4.05422 23.8554 4.23495C24.5783 4.59639 25.1205 4.77712 25.6627 5.31928C26.2048 5.86145 26.5663 6.40362 26.747 7.12651C26.9277 7.66868 27.1084 8.39157 27.2892 9.83736V15.9819V22.1265C27.2892 23.5723 26.9277 24.2952 26.747 24.8374C26.3855 25.5602 26.2048 26.1024 25.6627 26.6446C25.1205 27.1868 24.5783 27.5482 23.8554 27.7289C23.3133 27.9096 22.5904 28.0904 21.1446 28.2711H15H8.85542C7.40964 28.2711 6.68675 27.9096 6.14458 27.7289C5.42169 27.3675 4.87952 27.1868 4.33735 26.6446C3.79518 26.1024 3.43374 25.5602 3.25301 24.8374C3.07229 24.2952 2.89157 23.5723 2.71084 22.1265V15.9819V9.83736C2.71084 8.39157 3.07229 7.66868 3.25301 7.12651C3.61446 6.40362 3.79518 5.86145 4.33735 5.31928C4.87952 4.77712 5.42169 4.41567 6.14458 4.23495C6.68675 4.05422 7.40964 3.8735 8.85542 3.69278H15ZM7.22892 15.9819C7.22892 11.6446 10.6627 8.21085 15 8.21085C19.3374 8.21085 22.7711 11.6446 22.7711 15.9819C22.7711 20.3193 19.3374 23.753 15 23.753C10.6627 23.753 7.22892 20.3193 7.22892 15.9819ZM24.759 8.03013C24.759 9.02823 23.9499 9.83736 22.9518 9.83736C21.9537 9.83736 21.1446 9.02823 21.1446 8.03013C21.1446 7.03202 21.9537 6.2229 22.9518 6.2229C23.9499 6.2229 24.759 7.03202 24.759 8.03013Z" fill="black"/>
<path d="M15 21.0422C12.2892 21.0422 9.93976 18.8735 9.93976 15.9819C9.93976 13.2711 12.1084 10.9217 15 10.9217C17.7108 10.9217 20.0602 13.0904 20.0602 15.9819C20.0602 18.6928 17.7108 21.0422 15 21.0422Z" fill="black"/>
</svg>
