<svg width="60" height="75" viewBox="0 0 60 75" fill="none" xmlns="http://www.w3.org/2000/svg">
<g clip-path="url(#clip0_321_86)">
<path d="M24.9375 38.625H17.2831C16.6728 38.625 16.2039 38.0885 16.2991 37.4857C17.4454 30.232 20.0765 17.8816 23.3656 10.8872C23.7842 9.99709 24.9375 10.3163 24.9375 11.3V31.625C24.9375 32.1773 25.3974 32.6268 25.9494 32.6087C40.7012 32.1251 36.7377 21.0122 27.75 21.5625C30.5514 21.1423 34.1159 19.2723 35.8478 18.2124C36.0675 18.0779 36.3306 18.0258 36.5811 18.0858C46.8052 20.5359 51.2275 38.9953 24.9375 38.625Z" fill="white" stroke="black" stroke-width="0.375" stroke-linejoin="round"/>
<mask id="mask0_321_86" style="mask-type:alpha" maskUnits="userSpaceOnUse" x="15" y="9" width="30" height="30">
<path d="M24.9375 38.625H16.5593C16.3304 38.625 16.1541 38.4274 16.1884 38.2011C17.3658 30.4432 20.462 16.0874 24.2957 9.46208C24.4805 9.14281 24.9375 9.28268 24.9375 9.65155V32.25C24.9375 32.4571 25.1164 32.6252 25.3235 32.6227C40.8104 32.4362 36.8626 21.0046 27.75 21.5625C30.6722 21.1242 34.4245 19.1085 36.0613 18.08C36.143 18.0286 36.2413 18.0102 36.3357 18.0303C46.7328 20.2408 51.4369 38.9982 24.9375 38.625Z" fill="black" stroke="black" stroke-width="0.375" stroke-linejoin="round"/>
</mask>
<g mask="url(#mask0_321_86)">
<path d="M61.3125 -4.6875C61.3125 14.2628 46.0342 29.625 27.1875 29.625C8.34078 29.625 -6.9375 14.2628 -6.9375 -4.6875C-6.9375 -23.6378 8.34078 -39 27.1875 -39C46.0342 -39 61.3125 -23.6378 61.3125 -4.6875Z" fill="url(#paint0_radial_321_86)"/>
</g>
<path d="M24.9375 0.75V6.3438C24.9375 6.5627 25.1234 6.73494 25.3417 6.7198C29.9327 6.40139 37.2664 6.74581 33.4048 13.2343C33.2461 13.5008 33.4396 13.8061 33.7342 13.7089C35.2152 13.2204 38.2424 11.5677 42.6718 7.46672C42.7731 7.373 42.8171 7.22931 42.7768 7.09738C41.6672 3.46381 36.6982 0.441686 25.317 0.376088C25.1099 0.374895 24.9375 0.542893 24.9375 0.75Z" fill="white"/>
<path d="M16.125 24.1875V0.75C16.125 0.542893 16.2929 0.375 16.5 0.375H22.8362C23.1522 0.375 23.3294 0.744171 23.141 0.997806C18.2551 7.57756 16.4277 19.1021 16.125 24.1875Z" fill="white"/>
<path d="M24.9375 0.75V6.3438C24.9375 6.5627 25.1234 6.73494 25.3417 6.7198C29.9327 6.40139 37.2664 6.74581 33.4048 13.2343C33.2461 13.5008 33.4396 13.8061 33.7342 13.7089C35.2152 13.2204 38.2424 11.5677 42.6718 7.46672C42.7731 7.373 42.8171 7.22931 42.7768 7.09738C41.6672 3.46381 36.6982 0.441686 25.317 0.376088C25.1099 0.374895 24.9375 0.542893 24.9375 0.75Z" stroke="black" stroke-width="0.375" stroke-linejoin="round"/>
<path d="M16.125 24.1875V0.75C16.125 0.542893 16.2929 0.375 16.5 0.375H22.8362C23.1522 0.375 23.3294 0.744171 23.141 0.997806C18.2551 7.57756 16.4277 19.1021 16.125 24.1875Z" stroke="black" stroke-width="0.375" stroke-linejoin="round"/>
<path d="M0.75 44.25V7.80425C0.75 7.01881 1.57492 6.61555 2.03856 7.24955C7.71497 15.0117 5.35987 46.0726 27.17 48.2971C27.6957 48.3508 28.125 48.7869 28.125 49.3154V73.1817C28.125 73.9701 27.2472 74.4418 26.5861 74.0123C4.86929 59.9017 0.75 49.7476 0.75 44.25Z" fill="white"/>
<path d="M59.25 44.25V7.80425C59.25 7.01881 58.4251 6.61555 57.9614 7.24955C52.285 15.0117 54.6401 46.0726 32.83 48.2971C32.3043 48.3508 31.875 48.7869 31.875 49.3154V73.1817C31.875 73.9701 32.7528 74.4418 33.4139 74.0123C55.1307 59.9017 59.25 49.7476 59.25 44.25Z" fill="white"/>
<path d="M0.75 44.25V7.80425C0.75 7.01881 1.57492 6.61555 2.03856 7.24955C7.71497 15.0117 5.35987 46.0726 27.17 48.2971C27.6957 48.3508 28.125 48.7869 28.125 49.3154V73.1817C28.125 73.9701 27.2472 74.4418 26.5861 74.0123C4.86929 59.9017 0.75 49.7476 0.75 44.25Z" stroke="black" stroke-width="0.375"/>
<path d="M59.25 44.25V7.80425C59.25 7.01881 58.4251 6.61555 57.9614 7.24955C52.285 15.0117 54.6401 46.0726 32.83 48.2971C32.3043 48.3508 31.875 48.7869 31.875 49.3154V73.1817C31.875 73.9701 32.7528 74.4418 33.4139 74.0123C55.1307 59.9017 59.25 49.7476 59.25 44.25Z" stroke="black" stroke-width="0.375"/>
</g>
<defs>
<radialGradient id="paint0_radial_321_86" cx="0" cy="0" r="1" gradientUnits="userSpaceOnUse" gradientTransform="translate(27.1875 -4.6875) rotate(90) scale(34.3125 34.125)">
<stop offset="0.296875"/>
<stop offset="1" stop-opacity="0.5"/>
</radialGradient>
<clipPath id="clip0_321_86">
<rect width="60" height="75" fill="white"/>
</clipPath>
</defs>
</svg>
